<svg width="14" height="14" viewBox="0 0 14 14" fill="none" xmlns="http://www.w3.org/2000/svg">
<path d="M13.1483 9.84667L11.9058 11.0833L13.1483 12.32L12.32 13.1483L11.0833 11.9058L9.84668 13.1483L9.02418 12.32L10.2608 11.0833L9.02418 9.84667L9.84668 9.02417L11.0833 10.2608L12.32 9.02417L13.1483 9.84667ZM7.00001 5.25C6.03168 5.25 5.25001 6.03167 5.25001 7C5.25001 7.96833 6.03168 8.75 7.00001 8.75C7.96834 8.75 8.75001 7.96833 8.75001 7C8.75001 6.03167 7.96834 5.25 7.00001 5.25ZM7.00001 9.91667C5.39001 9.91667 4.08334 8.61 4.08334 7C4.08334 5.39 5.39001 4.08333 7.00001 4.08333C8.61001 4.08333 9.91668 5.39 9.91668 7C9.91668 7.29167 9.85834 7.58333 9.78251 7.83417C10.185 7.67667 10.6225 7.58333 11.0833 7.58333C11.7367 7.58333 12.3492 7.77 12.8742 8.07917C13.0842 7.74083 13.265 7.37917 13.4167 7C12.4075 4.43917 9.91668 2.625 7.00001 2.625C4.08334 2.625 1.59251 4.43917 0.583344 7C1.59251 9.56083 4.08334 11.375 7.00001 11.375C7.20418 11.375 7.40251 11.375 7.60084 11.3458C7.58334 11.2583 7.58334 11.1708 7.58334 11.0833C7.58334 10.6225 7.67668 10.185 7.83418 9.7825C7.58334 9.85833 7.29168 9.91667 7.00001 9.91667Z" fill="black"/>
</svg>
