<svg width="15" height="14" viewBox="0 0 15 14" fill="none" xmlns="http://www.w3.org/2000/svg">
<g clip-path="url(#clip0_12_1852)">
<path d="M14.2083 9.91667L11.2916 12.8333L9.24998 10.7917L10.125 9.91667L11.2916 11.0833L13.3333 9.04167L14.2083 9.91667ZM7.49998 5.25C7.96411 5.25 8.40923 5.43437 8.73742 5.76256C9.06561 6.09075 9.24998 6.53587 9.24998 7C9.24998 7.46413 9.06561 7.90925 8.73742 8.23744C8.40923 8.56563 7.96411 8.75 7.49998 8.75C7.03585 8.75 6.59073 8.56563 6.26254 8.23744C5.93435 7.90925 5.74998 7.46413 5.74998 7C5.74998 6.53587 5.93435 6.09075 6.26254 5.76256C6.59073 5.43437 7.03585 5.25 7.49998 5.25ZM7.49998 9.91667C7.79165 9.91667 8.06581 9.87583 8.32831 9.79417C8.17081 10.2083 8.08331 10.6283 8.08331 11.0833V11.3458L7.49998 11.375C4.58331 11.375 2.09248 9.56083 1.08331 7C2.09248 4.43917 4.58331 2.625 7.49998 2.625C10.4166 2.625 12.9075 4.43917 13.9166 7C13.7708 7.37333 13.59 7.735 13.38 8.07917C12.855 7.76417 12.2366 7.58333 11.5833 7.58333C11.1283 7.58333 10.7083 7.67083 10.2941 7.82833C10.3758 7.56583 10.4166 7.29167 10.4166 7C10.4166 6.22645 10.1094 5.48459 9.56237 4.93761C9.01539 4.39062 8.27353 4.08333 7.49998 4.08333C6.72643 4.08333 5.98457 4.39062 5.43758 4.93761C4.8906 5.48459 4.58331 6.22645 4.58331 7C4.58331 7.77355 4.8906 8.51541 5.43758 9.06239C5.98457 9.60938 6.72643 9.91667 7.49998 9.91667Z" fill="white"/>
</g>
<defs>
<clipPath id="clip0_12_1852">
<rect width="14" height="14" fill="white" transform="translate(0.5)"/>
</clipPath>
</defs>
</svg>
